<svg width="32" height="26" viewBox="0 0 32 26" fill="none" xmlns="http://www.w3.org/2000/svg">
<path d="M3.2 11.9841C2.5671 11.9841 1.94841 12.1718 1.42218 12.5234C0.895939 12.875 0.485787 13.3748 0.243587 13.9595C0.0013865 14.5442 -0.0619842 15.1876 0.0614885 15.8084C0.184961 16.4291 0.489732 16.9993 0.93726 17.4468C1.38479 17.8944 1.95497 18.1991 2.57571 18.3226C3.19645 18.4461 3.83986 18.3827 4.42459 18.1405C5.00931 17.8983 5.50908 17.4881 5.8607 16.9619C6.21233 16.4357 6.4 15.817 6.4 15.1841C6.39921 14.3356 6.06181 13.5222 5.46187 12.9222C4.86192 12.3223 4.04845 11.9849 3.2 11.9841ZM7.6 15.9841H10V14.3841H7.6V15.9841ZM22.32 10.6441L23.28 11.9241L25.68 10.1241L24.72 8.84408L22.32 10.6441ZM28.8 3.18408C28.1671 3.18408 27.5484 3.37176 27.0222 3.72338C26.4959 4.075 26.0858 4.57477 25.8436 5.1595C25.6014 5.74422 25.538 6.38763 25.6615 7.00837C25.785 7.62911 26.0897 8.1993 26.5373 8.64682C26.9848 9.09435 27.555 9.39912 28.1757 9.5226C28.7965 9.64607 29.4399 9.5827 30.0246 9.3405C30.6093 9.0983 31.1091 8.68814 31.4607 8.16191C31.8123 7.63567 32 7.01698 32 6.38408C31.9992 5.53563 31.6618 4.72216 31.0619 4.12222C30.4619 3.52227 29.6484 3.18488 28.8 3.18408Z" fill="#19C1CE"/>
<path d="M28.8001 19.184C28.1082 19.1874 27.4361 19.4155 26.8851 19.834L22.0851 16.954C22.2871 16.3837 22.3935 15.784 22.4001 15.179C22.4005 14.4435 22.2559 13.7151 21.9746 13.0355C21.6933 12.3559 21.2809 11.7384 20.7608 11.2183C20.2407 10.6982 19.6232 10.2857 18.9436 10.0045C18.264 9.72318 17.5356 9.5786 16.8001 9.57899C16.3893 9.58103 15.98 9.62968 15.5801 9.72399L13.5401 5.35399C14.0367 4.81459 14.3325 4.12067 14.3777 3.38888C14.4229 2.65709 14.2148 1.93204 13.7884 1.3356C13.362 0.739157 12.7433 0.307693 12.0362 0.113727C11.3291 -0.0802383 10.5769 -0.0248789 9.9058 0.2705C9.23474 0.565879 8.68583 1.08327 8.35133 1.7357C8.01682 2.38814 7.91712 3.13584 8.06898 3.85313C8.22084 4.57042 8.61499 5.21356 9.1852 5.67446C9.75541 6.13536 10.4669 6.3859 11.2001 6.38399C11.2551 6.38399 11.3051 6.36899 11.3601 6.36899L13.4101 10.759C12.0751 11.779 11.2001 13.374 11.2001 15.184C11.1972 16.3052 11.5318 17.4014 12.1604 18.3299C12.789 19.2584 13.6825 19.9761 14.7246 20.3899C15.7667 20.8036 16.9093 20.8941 18.0035 20.6496C19.0978 20.4051 20.0932 19.8369 20.8601 19.019L25.6501 21.894C25.5513 22.5391 25.6525 23.1989 25.94 23.7847C26.2276 24.3705 26.6877 24.8542 27.2585 25.1706C27.8292 25.4869 28.4832 25.6209 29.1324 25.5543C29.7816 25.4878 30.3948 25.224 30.8895 24.7984C31.3842 24.3728 31.7366 23.8058 31.8994 23.1739C32.0621 22.5419 32.0273 21.8752 31.7997 21.2636C31.5721 20.652 31.1626 20.1248 30.6263 19.753C30.09 19.3812 29.4527 19.1826 28.8001 19.184ZM16.8001 17.584C16.3254 17.584 15.8614 17.4432 15.4667 17.1795C15.072 16.9158 14.7644 16.541 14.5828 16.1024C14.4011 15.6639 14.3536 15.1813 14.4462 14.7158C14.5388 14.2502 14.7674 13.8226 15.103 13.4869C15.4387 13.1513 15.8663 12.9227 16.3319 12.8301C16.7974 12.7375 17.28 12.785 17.7185 12.9667C18.1571 13.1483 18.5319 13.4559 18.7956 13.8506C19.0593 14.2453 19.2001 14.7093 19.2001 15.184C19.2001 15.8205 18.9472 16.431 18.4971 16.881C18.0471 17.3311 17.4366 17.584 16.8001 17.584Z" fill="#19C1CE"/>
</svg>
