<svg width="522" height="96" viewBox="0 0 522 96" fill="none" xmlns="http://www.w3.org/2000/svg">
<path d="M481.438 25.502H492.983L513.451 59.2215H514.2L513.451 53.2451V25.502H522V70.4823H510.456L489.988 36.7628H489.239L489.988 42.7392V70.4823H481.438V25.502Z" fill="black"/>
<path d="M448.365 24C462.842 24 473.264 34.5059 473.264 47.9685C473.264 61.4312 462.842 71.9371 448.365 71.9371C433.888 71.9371 423.466 61.4312 423.466 47.9685C423.466 34.5059 433.825 24 448.365 24ZM448.365 63.6959C457.663 63.6959 464.34 56.9646 464.34 47.9685C464.34 38.9725 457.663 32.2412 448.365 32.2412C439.067 32.2412 432.39 38.9725 432.39 47.9685C432.39 56.9646 439.067 63.6959 448.365 63.6959Z" fill="black"/>
<path d="M406.68 25.502H415.229V70.4823H406.68V25.502Z" fill="black"/>
<path d="M360.189 25.502H400.751V33.7431H384.776V70.4823H376.227V33.7431H360.189V25.502Z" fill="black"/>
<path d="M328.551 25.502H348.77L361.313 70.4823H352.763L349.768 59.5989H327.428L324.432 70.4823H315.883L328.551 25.502ZM347.584 51.4207L342.779 33.806H334.604L329.799 51.4207H347.584Z" fill="black"/>
<path d="M276.57 25.502H317.132V33.7431H301.157V70.4823H292.607V33.7431H276.57V25.502Z" fill="black"/>
<path d="M243.433 57.0275C243.808 58.3486 244.494 59.6068 245.43 60.6134C247.115 62.4377 249.923 64.1363 254.978 64.1363C262.404 64.1363 265.399 61.1166 265.399 58.1599C265.399 53.3788 258.161 52.2464 250.922 50.6736C243.621 49.1009 236.444 46.0183 236.444 37.5256C236.444 30.4168 242.747 24 254.666 24C263.028 24 267.833 27.3971 270.579 30.7313C272.201 32.7444 273.324 35.0092 274.011 37.4626H265.087C264.713 36.519 264.151 35.5124 263.215 34.6946C261.718 33.2477 259.097 31.8637 254.666 31.8637C247.926 31.8637 245.368 34.1284 245.368 37.0852C245.368 40.4823 249.487 42.055 254.541 43.0616C263.09 44.7602 274.385 46.8991 274.385 57.6566C274.385 65.1428 267.771 71.8742 255.04 71.8742C245.618 71.8742 240.313 68.2254 237.505 64.3879C235.883 62.1861 234.759 59.6697 234.26 56.9017H243.433V57.0275Z" fill="black"/>
<path d="M218.036 47.9685C218.036 34.0655 206.866 24 191.39 24H171.483V72H191.39C206.803 71.9371 218.036 61.8716 218.036 47.9685ZM185.649 59.7955V36.1415H191.015C198.441 36.1415 203.122 40.671 203.122 47.9685C203.122 55.2661 198.504 59.7955 191.015 59.7955H185.649V59.7955Z" fill="black"/>
<path d="M155.82 55.0144C157.318 54.3224 158.691 53.2529 159.939 51.9318C162.747 49.038 164.12 45.4522 164.12 41.2372C164.12 31.0459 156.195 24 144.9 24H119.314V72H133.48V58.1599H142.154L149.892 72H164.182L154.946 55.4548L155.82 55.0144ZM143.527 46.6474H133.542V35.7641H143.527C147.021 35.7641 149.642 38.0917 149.642 41.1743C149.642 44.3198 147.021 46.6474 143.527 46.6474Z" fill="black"/>
<path d="M47.707 69.6478L95.4514 87.4158V71.4846L47.707 53.7166L0 71.4846V87.4158L47.707 69.6478Z" fill="black"/>
<path d="M47.707 69.6479L0 87.4159L17.708 96L47.707 84.8294L77.7434 96L95.4514 87.4159L47.707 69.6479Z" fill="white"/>
<path d="M47.707 26.3523L0 8.58411V24.5154L47.707 42.2836L95.4514 24.5154V8.58411L47.707 26.3523Z" fill="black"/>
<path d="M47.707 26.3523L95.4514 8.58411L77.7434 0L47.707 11.1707L17.708 0L0 8.58411L47.707 26.3523Z" fill="white"/>
</svg>
