<svg width="18" height="14" viewBox="0 0 18 14" fill="none" xmlns="http://www.w3.org/2000/svg">
<path d="M8.99988 10.7501C7.02462 10.7501 5.42567 9.22118 5.27854 7.28368L2.54677 5.17249C2.18766 5.62301 1.85719 6.09931 1.59053 6.62014C1.53095 6.73798 1.49991 6.86818 1.49991 7.00022C1.49991 7.13226 1.53095 7.26245 1.59053 7.3803C3.00276 10.1358 5.79859 12.0001 8.99988 12.0001C9.70066 12.0001 10.3767 11.8959 11.0283 11.7277L9.67696 10.6821C9.45379 10.7252 9.22716 10.748 8.99988 10.7501ZM17.1723 12.2631L14.2934 10.0381C15.1679 9.3011 15.8871 8.39756 16.4092 7.38003C16.4688 7.26219 16.4998 7.132 16.4998 6.99996C16.4998 6.86792 16.4688 6.73772 16.4092 6.61988C14.997 3.86442 12.2012 2.0001 8.99988 2.0001C7.65913 2.00173 6.34015 2.33926 5.16343 2.98187L1.85042 0.421203C1.80722 0.387585 1.75781 0.36281 1.70503 0.348293C1.65225 0.333776 1.59713 0.329802 1.54281 0.336597C1.48849 0.343393 1.43605 0.360825 1.38847 0.387898C1.34089 0.414971 1.29911 0.451154 1.26553 0.494379L0.75433 1.15245C0.686517 1.23969 0.656131 1.35028 0.669854 1.45992C0.683577 1.56956 0.740285 1.66925 0.827507 1.73708L16.1493 13.579C16.1925 13.6126 16.2419 13.6374 16.2947 13.6519C16.3475 13.6664 16.4026 13.6704 16.4569 13.6636C16.5113 13.6568 16.5637 13.6393 16.6113 13.6123C16.6589 13.5852 16.7006 13.549 16.7342 13.5058L17.2457 12.8477C17.3135 12.7605 17.3438 12.6498 17.33 12.5402C17.3163 12.4306 17.2595 12.3309 17.1723 12.2631ZM12.3879 8.56519L11.3645 7.77404C11.4506 7.52495 11.4964 7.26365 11.4999 7.00009C11.505 6.61422 11.4195 6.23254 11.2503 5.8857C11.0811 5.53886 10.8329 5.23654 10.5257 5.00302C10.2185 4.76949 9.86076 4.61127 9.4813 4.54107C9.10184 4.47087 8.7112 4.49064 8.34077 4.59879C8.4978 4.81158 8.58274 5.06897 8.58321 5.33343C8.57933 5.42143 8.56588 5.50875 8.54311 5.59384L6.62619 4.11234C7.29207 3.55588 8.1321 3.25074 8.99988 3.2501C9.49241 3.24983 9.98017 3.34664 10.4353 3.53499C10.8904 3.72335 11.3039 3.99956 11.6521 4.34784C12.0004 4.69611 12.2766 5.10961 12.465 5.56471C12.6533 6.0198 12.7501 6.50756 12.7499 7.00009C12.7499 7.56337 12.6121 8.08837 12.3879 8.56545V8.56519Z" fill="#212429"/>
</svg>
