<svg width="16" height="10" viewBox="0 0 16 10" fill="none" xmlns="http://www.w3.org/2000/svg">
<path d="M15.4098 4.61986C13.9975 1.86439 11.2017 6.10352e-05 8.00037 6.10352e-05C4.79906 6.10352e-05 2.00244 1.86569 0.590977 4.62012C0.531405 4.73796 0.500366 4.86816 0.500366 5.0002C0.500366 5.13224 0.531405 5.26244 0.590977 5.38028C2.00322 8.13575 4.79906 10.0001 8.00037 10.0001C11.2017 10.0001 13.9983 8.13445 15.4098 5.38002C15.4693 5.26218 15.5004 5.13198 15.5004 4.99994C15.5004 4.8679 15.4693 4.7377 15.4098 4.61986ZM8.00037 8.75008C7.25869 8.75008 6.53366 8.53014 5.91697 8.11809C5.30029 7.70603 4.81964 7.12036 4.53581 6.43514C4.25198 5.74991 4.17772 4.99591 4.32241 4.26848C4.46711 3.54105 4.82426 2.87286 5.34871 2.34841C5.87316 1.82397 6.54135 1.46681 7.26878 1.32212C7.99621 1.17742 8.75021 1.25169 9.43543 1.53552C10.1207 1.81934 10.7063 2.29999 11.1184 2.91668C11.5304 3.53336 11.7504 4.25839 11.7504 5.00007C11.7506 5.4926 11.6538 5.98034 11.4654 6.43542C11.277 6.8905 11.0008 7.30399 10.6526 7.65226C10.3043 8.00053 9.8908 8.27674 9.43572 8.46511C8.98064 8.65348 8.49289 8.75032 8.00037 8.75008ZM8.00037 2.50007C7.77722 2.50318 7.55552 2.53638 7.34125 2.59876C7.51787 2.83878 7.60263 3.13415 7.58015 3.4313C7.55767 3.72845 7.42944 4.00771 7.21872 4.21843C7.00801 4.42915 6.72875 4.55737 6.4316 4.57985C6.13445 4.60233 5.83908 4.51757 5.59906 4.34095C5.46238 4.84449 5.48706 5.37822 5.6696 5.867C5.85215 6.35578 6.18338 6.77501 6.61667 7.06569C7.04996 7.35636 7.56349 7.50384 8.08499 7.48737C8.60649 7.47089 9.10969 7.2913 9.52378 6.97385C9.93785 6.65641 10.242 6.21711 10.3933 5.71778C10.5446 5.21845 10.5356 4.68423 10.3674 4.19032C10.1992 3.69641 9.88035 3.26768 9.45574 2.96447C9.03113 2.66126 8.52212 2.49884 8.00037 2.50007Z" fill="#212429"/>
</svg>
