<svg width="40" height="40" viewBox="0 0 40 40" fill="none" xmlns="http://www.w3.org/2000/svg">
<path d="M40 20.0002C40 8.95448 31.0457 0.000183105 20 0.000183105C8.9543 0.000183105 0 8.95448 0 20.0002C0 29.9826 7.31367 38.2568 16.875 39.7572V25.7814H11.7969V20.0002H16.875V15.5939C16.875 10.5814 19.8609 7.81268 24.4293 7.81268C26.6176 7.81268 28.9062 8.20331 28.9062 8.20331V13.1252H26.3844C23.9 13.1252 23.125 14.667 23.125 16.2486V20.0002H28.6719L27.7852 25.7814H23.125V39.7572C32.6863 38.2568 40 29.9826 40 20.0002Z" fill="#1877F2"/>
<path d="M27.7852 25.7814L28.6719 20.0002H23.125V16.2486C23.125 14.667 23.9 13.1252 26.3844 13.1252H28.9062V8.20331C28.9062 8.20331 26.6176 7.81268 24.4293 7.81268C19.8609 7.81268 16.875 10.5814 16.875 15.5939V20.0002H11.7969V25.7814H16.875V39.7572C17.8934 39.917 18.9367 40.0002 20 40.0002C21.0633 40.0002 22.1066 39.917 23.125 39.7572V25.7814H27.7852Z" fill="white"/>
</svg>
