<svg width="40" height="40" viewBox="0 0 40 40" fill="none" xmlns="http://www.w3.org/2000/svg">
<path d="M40 20.4446C40 18.8002 39.8639 17.6002 39.5692 16.3558H20.4082V23.7779H31.6553C31.4286 25.6224 30.2041 28.4002 27.483 30.2668L27.4448 30.5153L33.5032 35.1147L33.9229 35.1558C37.7777 31.6668 40 26.5335 40 20.4446Z" fill="#4285F4"/>
<path d="M20.4081 40.0003C25.9182 40.0003 30.544 38.2224 33.9228 35.1559L27.4829 30.2669C25.7596 31.4447 23.4466 32.2669 20.4081 32.2669C15.0113 32.2669 10.4308 28.7781 8.79804 23.9559L8.55871 23.9758L2.25914 28.7536L2.17676 28.978C5.53273 35.5113 12.4262 40.0003 20.4081 40.0003Z" fill="#34A853"/>
<path d="M8.7981 23.9552C8.36727 22.7108 8.11793 21.3774 8.11793 19.9996C8.11793 18.6218 8.36727 17.2885 8.77543 16.0441L8.76402 15.779L2.38551 10.9245L2.17682 11.0218C0.79366 13.7329 0 16.7774 0 19.9996C0 23.2219 0.79366 26.2662 2.17682 28.9774L8.7981 23.9552Z" fill="#FBBC05"/>
<path d="M20.4081 7.73328C24.2402 7.73328 26.8252 9.3555 28.2992 10.7111L34.0588 5.2C30.5215 1.97779 25.9182 0 20.4081 0C12.4262 0 5.53273 4.48885 2.17676 11.0221L8.77537 16.0444C10.4308 11.2222 15.0113 7.73328 20.4081 7.73328Z" fill="#EB4335"/>
</svg>
