<svg width="32" height="24" viewBox="0 0 32 24" fill="none" xmlns="http://www.w3.org/2000/svg">
<path d="M32 21V23C32 23.2652 31.8946 23.5196 31.7071 23.7071C31.5196 23.8946 31.2652 24 31 24H2C1.46957 24 0.960859 23.7893 0.585786 23.4142C0.210714 23.0391 0 22.5304 0 22V1C0 0.734784 0.105357 0.48043 0.292893 0.292893C0.48043 0.105357 0.734784 0 1 0H3C3.26522 0 3.51957 0.105357 3.70711 0.292893C3.89464 0.48043 4 0.734784 4 1V20H31C31.2652 20 31.5196 20.1054 31.7071 20.2929C31.8946 20.4804 32 20.7348 32 21Z" fill="#19C1CE"/>
<path d="M29.9998 3V10.3781C29.9998 11.7144 28.3842 12.3837 27.4373 11.4406L25.4123 9.41562L19.4123 15.4156C19.0373 15.7906 18.5286 16.0013 17.9983 16.0013C17.4679 16.0013 16.9593 15.7906 16.5842 15.4156L11.9998 10.8281L9.1211 13.7075C9.02824 13.8004 8.91799 13.8741 8.79665 13.9243C8.67531 13.9746 8.54525 14.0005 8.41391 14.0005C8.28257 14.0005 8.15252 13.9746 8.03118 13.9243C7.90983 13.8741 7.79959 13.8004 7.70672 13.7075L6.29297 12.2938C6.20009 12.2009 6.12641 12.0906 6.07614 11.9693C6.02587 11.848 6 11.7179 6 11.5866C6 11.4552 6.02587 11.3252 6.07614 11.2038C6.12641 11.0825 6.20009 10.9722 6.29297 10.8794L10.5861 6.58625C10.9612 6.21127 11.4698 6.00061 12.0002 6.00061C12.5305 6.00061 13.0392 6.21127 13.4142 6.58625L17.9998 11.1719L22.5855 6.58562L20.5623 4.5625C19.6173 3.6175 20.2867 2 21.6248 2H28.9998C29.2651 2 29.5194 2.10536 29.707 2.29289C29.8945 2.48043 29.9998 2.73478 29.9998 3Z" fill="#19C1CE"/>
</svg>
