<svg width="40" height="40" viewBox="0 0 40 40" fill="none" xmlns="http://www.w3.org/2000/svg">
<g clip-path="url(#clip0_1592_2943)">
<path d="M34.1468 25.5136C34.3424 21.9487 33.1035 16.1153 30.1041 11.319C30.0389 11.1893 29.8759 11.2541 29.9085 11.3838C30.1041 12.0967 30.1693 13.4255 28.9956 13.3606C26.9417 13.231 29.0608 8.82355 24.5291 5.80963C24.4313 5.74481 24.3335 5.84203 24.3661 5.93926C24.6922 6.5226 24.8552 8.36984 24.1379 8.98559C23.5511 9.47171 22.5078 9.34208 21.4972 7.68928C19.8018 4.93461 20.4539 2.01791 21.595 0.170664C21.6928 0.0410327 21.5624 -0.023783 21.4645 0.00862483C15.2375 2.05032 13.9987 9.34208 12.662 11.9995C12.4338 12.4532 12.2382 12.6801 11.8795 12.6477C10.7385 12.5829 11.5535 10.1523 11.9447 9.34208C12.0099 9.21245 11.8795 9.14763 11.7817 9.24485C8.58672 12.5505 5.68513 18.2218 5.1309 23.4719C5.1635 23.3423 5.06569 23.8932 5.03309 24.3145C5.03309 24.4765 5.00049 24.6386 5.00049 24.8006V25.384C4.93529 33.3887 11.3905 39.9027 19.4432 39.9999C27.4959 40.0647 34.049 33.6479 34.1468 25.6432V25.5136ZM19.5084 32.222C15.7918 32.1896 12.7924 29.1757 12.825 25.4488C12.8576 21.7219 15.8896 18.7728 19.6388 18.8052C23.3881 18.8376 26.3549 21.8515 26.3223 25.5784C26.2897 29.3053 23.2577 32.2544 19.5084 32.222Z" fill="#F04E23"/>
</g>
<defs>
<clipPath id="clip0_1592_2943">
<rect width="40" height="40" fill="white" transform="translate(0 0.000366211)"/>
</clipPath>
</defs>
</svg>
