<svg width="40" height="40" viewBox="0 0 40 40" fill="none" xmlns="http://www.w3.org/2000/svg">
<g clip-path="url(#clip0_1592_2935)">
<path d="M40 2.91685V37.0835C40 37.8571 39.6927 38.5989 39.1457 39.1459C38.5987 39.6929 37.8569 40.0002 37.0833 40.0002H2.91667C2.14312 40.0002 1.40126 39.6929 0.854276 39.1459C0.307295 38.5989 0 37.8571 0 37.0835V2.91685C0 2.1433 0.307295 1.40144 0.854276 0.854455C1.40126 0.307474 2.14312 0.000183105 2.91667 0.000183105L37.0833 0.000183105C37.8569 0.000183105 38.5987 0.307474 39.1457 0.854455C39.6927 1.40144 40 2.1433 40 2.91685ZM11.6667 15.0002H5.83333V34.1668H11.6667V15.0002ZM12.1667 8.75018C12.1749 8.0745 11.9825 7.41156 11.6139 6.8452C11.2454 6.27883 10.7171 5.83448 10.096 5.56831C9.47492 5.30215 8.78885 5.22614 8.12454 5.34989C7.46024 5.47364 6.84755 5.79159 6.36395 6.26354C5.88034 6.7355 5.54754 7.34025 5.40763 8.00134C5.26771 8.66243 5.32697 9.35016 5.5779 9.97757C5.82884 10.605 6.26019 11.1439 6.8174 11.5262C7.37461 11.9084 8.03265 12.1169 8.70833 12.1252H8.75C9.18777 12.1363 9.62344 12.061 10.0321 11.9036C10.4408 11.7463 10.8144 11.5099 11.1317 11.2081C11.449 10.9063 11.7037 10.5449 11.8813 10.1446C12.0589 9.74433 12.1559 9.31296 12.1667 8.87518V8.75018ZM34.1667 22.6835C34.1667 16.8502 30.3083 14.5835 26.9583 14.5835C23.6083 14.5835 21.125 16.5335 20.575 17.7085H20.5V15.0002H15V34.1668H20.8333V24.1668C20.8333 21.0918 22.925 19.7252 24.9583 19.7252C26.625 19.7252 28.3333 21.0085 28.3333 24.0918V34.1668H34.1667V22.6835Z" fill="#0A66C2"/>
</g>
<defs>
<clipPath id="clip0_1592_2935">
<rect width="40" height="40" fill="white"/>
</clipPath>
</defs>
</svg>
