<svg width="174" height="32" viewBox="0 0 174 32" fill="none" xmlns="http://www.w3.org/2000/svg">
<path d="M160.48 8.50066H164.328L171.15 19.7405H171.4L171.15 17.7484V8.50066H174V23.4941H170.152L163.329 12.2543H163.08L163.329 14.2464V23.4941H160.48V8.50066Z" fill="black"/>
<path d="M149.455 8C154.281 8 157.754 11.502 157.754 15.9895C157.754 20.4771 154.281 23.979 149.455 23.979C144.629 23.979 141.155 20.4771 141.155 15.9895C141.155 11.502 144.608 8 149.455 8ZM149.455 21.232C152.554 21.232 154.78 18.9882 154.78 15.9895C154.78 12.9908 152.554 10.747 149.455 10.747C146.356 10.747 144.13 12.9908 144.13 15.9895C144.13 18.9882 146.356 21.232 149.455 21.232Z" fill="black"/>
<path d="M135.56 8.50066H138.41V23.4941H135.56V8.50066Z" fill="black"/>
<path d="M120.063 8.50066H133.583V11.2477H128.258V23.4941H125.409V11.2477H120.063V8.50066Z" fill="black"/>
<path d="M109.517 8.50066H116.257L120.438 23.4941H117.588L116.59 19.8663H109.143L108.144 23.4941H105.295L109.517 8.50066ZM115.862 17.1402L114.26 11.2687H111.535L109.933 17.1402H115.862Z" fill="black"/>
<path d="M92.1898 8.50066H105.71V11.2477H100.385V23.4941H97.5356V11.2477H92.1898V8.50066Z" fill="black"/>
<path d="M81.1443 19.0092C81.2691 19.4495 81.4979 19.8689 81.8099 20.2045C82.3716 20.8126 83.3076 21.3788 84.9925 21.3788C87.4678 21.3788 88.4662 20.3722 88.4662 19.3866C88.4662 17.7929 86.0533 17.4155 83.6404 16.8912C81.2067 16.367 78.8146 15.3394 78.8146 12.5085C78.8146 10.1389 80.9155 8 84.8885 8C87.6758 8 89.2775 9.13237 90.1927 10.2438C90.7335 10.9148 91.108 11.6697 91.3368 12.4875H88.3622C88.2374 12.173 88.0502 11.8375 87.7382 11.5649C87.239 11.0826 86.3653 10.6212 84.8885 10.6212C82.642 10.6212 81.7891 11.3761 81.7891 12.3617C81.7891 13.4941 83.162 14.0183 84.8469 14.3539C87.6966 14.9201 91.4616 15.633 91.4616 19.2189C91.4616 21.7143 89.2567 23.9581 85.0133 23.9581C81.8723 23.9581 80.1043 22.7418 79.1682 21.4626C78.6274 20.7287 78.253 19.8899 78.0866 18.9672H81.1443V19.0092Z" fill="black"/>
<path d="M72.6787 15.9895C72.6787 11.3552 68.9553 8 63.7967 8H57.1612V24H63.7967C68.9345 23.979 72.6787 20.6238 72.6787 15.9895ZM61.883 19.9318V12.0472H63.6719C66.1472 12.0472 67.7073 13.557 67.7073 15.9895C67.7073 18.422 66.168 19.9318 63.6719 19.9318H61.883Z" fill="black"/>
<path d="M51.94 18.3381C52.4392 18.1075 52.8968 17.751 53.3128 17.3106C54.2489 16.346 54.7065 15.1507 54.7065 13.7457C54.7065 10.3486 52.0648 8 48.2998 8H39.7714V24H44.4932V19.3866H47.3846L49.9639 24H54.7273L51.6488 18.4849L51.94 18.3381ZM47.8422 15.5491H44.514V11.9214H47.8422C49.007 11.9214 49.8807 12.6972 49.8807 13.7248C49.8807 14.7733 49.007 15.5491 47.8422 15.5491Z" fill="black"/>
<path d="M15.9023 23.2159L31.8171 29.1386V23.8282L15.9023 17.9055L0 23.8282V29.1386L15.9023 23.2159Z" fill="black"/>
<path d="M15.9023 23.216L0 29.1386L5.90267 32L15.9023 28.2765L25.9145 32L31.8171 29.1386L15.9023 23.216Z" fill="#19C1CE"/>
<path d="M15.9023 8.7841L0 2.86137V8.17179L15.9023 14.0945L31.8171 8.17179V2.86137L15.9023 8.7841Z" fill="black"/>
<path d="M15.9023 8.7841L31.8171 2.86137L25.9145 0L15.9023 3.72358L5.90267 0L0 2.86137L15.9023 8.7841Z" fill="#19C1CE"/>
</svg>
