<svg width="32" height="29" viewBox="0 0 32 29" fill="none" xmlns="http://www.w3.org/2000/svg">
<path d="M32 13.7203C32 12.4023 31.2806 11.2638 30.2222 10.6458V2.11876C30.2222 1.63068 29.8344 0.333252 28.4444 0.333252C28.0489 0.333252 27.6561 0.466007 27.3344 0.724825L22.6106 4.51951C20.2378 6.42382 17.2589 7.47304 14.2222 7.47304H3.55556C1.59167 7.47304 0 9.07112 0 11.0429V16.3978C0 18.3696 1.59167 19.9677 3.55556 19.9677H5.42778C5.35056 20.5522 5.30667 21.1468 5.30667 21.7526C5.30667 23.971 5.82111 26.0672 6.72667 27.9408C7.015 28.5371 7.64444 28.8924 8.30444 28.8924H12.4311C13.8783 28.8924 14.7472 27.2279 13.87 26.0722C12.9589 24.8718 12.4172 23.3747 12.4172 21.7526C12.4172 21.1329 12.5072 20.5372 12.6622 19.9677H14.2222C17.2589 19.9677 20.2378 21.0169 22.61 22.9212L27.3339 26.7159C27.649 26.969 28.0404 27.1071 28.4439 27.1074C29.8283 27.1074 30.2217 25.8368 30.2217 25.3225V16.7955C31.2806 16.1769 32 15.0384 32 13.7203ZM26.6667 21.6087L24.8306 20.1339C21.8306 17.7242 18.0622 16.3978 14.2222 16.3978V11.0429C18.0622 11.0429 21.8306 9.71649 24.8306 7.30681L26.6667 5.832V21.6087Z" fill="#19C1CE"/>
</svg>
