<svg width="32" height="32" viewBox="0 0 32 32" fill="none" xmlns="http://www.w3.org/2000/svg">
<path d="M27.1429 22.9167L4.85714 22.9167C4.38373 22.9167 4 23.2897 4 23.75L4 25.8333C4 26.2936 4.38373 26.6667 4.85714 26.6667L27.1429 26.6667C27.6163 26.6667 28 26.2936 28 25.8333L28 23.75C28 23.2897 27.6163 22.9167 27.1429 22.9167ZM27.1429 14.5833L4.85714 14.5833C4.38373 14.5833 4 14.9564 4 15.4167L4 17.5C4 17.9603 4.38373 18.3333 4.85714 18.3333L27.1429 18.3333C27.6163 18.3333 28 17.9603 28 17.5L28 15.4167C28 14.9564 27.6163 14.5833 27.1429 14.5833ZM27.1429 6.25L4.85715 6.25C4.38373 6.25 4 6.62307 4 7.08333L4 9.16666C4 9.62692 4.38373 10 4.85714 10L27.1429 10C27.6163 10 28 9.62692 28 9.16666L28 7.08333C28 6.62307 27.6163 6.25 27.1429 6.25Z" fill="#19C1CE"/>
</svg>
