<svg width="40" height="40" viewBox="0 0 40 40" fill="none" xmlns="http://www.w3.org/2000/svg">
<g clip-path="url(#clip0_1592_2947)">
<path fill-rule="evenodd" clip-rule="evenodd" d="M4.73591 7.08199C3.25265 8.81706 2.13562 10.7915 1.31617 12.9529C0.457797 15.1987 0 17.5061 0 19.9684C0 22.7569 0.597425 25.3424 1.62518 27.7819C2.64835 30.2056 4.04692 32.2872 5.88727 34.118C7.67725 35.901 9.77625 37.3282 12.2026 38.3656C14.6289 39.419 17.2635 40.0004 19.9989 40.0004C22.78 40.0004 25.3734 39.444 27.8432 38.3656C30.2054 37.3396 32.3365 35.9352 34.1585 34.118C35.9622 32.3168 37.3539 30.1919 38.3542 27.7819C39.4049 25.315 40 22.7569 40 19.9684C40 17.5061 39.5376 15.1987 38.6815 12.9529C37.8438 10.7938 36.7359 8.86037 35.2641 7.08199C33.79 5.34236 32.0847 3.90141 30.1528 2.78878C27.1176 1.0446 23.9863 0.000366211 20.3582 0.000366211C20.182 0.000366211 20.0103 0.000366211 19.8386 0.000366211C16.2564 0.000366211 12.9763 1.0218 9.8907 2.78878C7.9382 3.89457 6.21459 5.3492 4.73591 7.08199Z" fill="#241F20"/>
<path fill-rule="evenodd" clip-rule="evenodd" d="M33.3619 7.24598C30.8852 4.24781 27.6783 2.31666 23.7229 1.57111C19.8363 0.843793 16.1579 1.42747 12.674 3.30845C10.884 4.31165 9.37101 5.56108 8.15099 7.03394C6.89662 8.54101 5.93754 10.2761 5.31951 12.2209C4.68317 14.2136 4.52066 16.3066 4.73582 18.3472C5.25542 17.0339 6.05199 15.8324 6.99963 14.6833C8.36386 13.0622 10.0577 11.847 11.9461 10.9555C13.83 10.1119 15.8992 9.64224 18.0463 9.59436C20.2071 9.59436 22.3084 10.0139 24.2586 10.8598C26.3141 11.6874 28.1041 12.9505 29.6308 14.6377C30.2008 15.2054 30.6769 15.8848 31.1438 16.5665C31.826 16.5665 32.5126 16.6144 33.0963 16.7786C34.6277 17.2004 35.834 17.9779 36.7747 19.1452L36.8205 18.3997C36.9876 16.3568 36.7747 14.4279 36.2071 12.5333C35.6211 10.6477 34.6734 8.86477 33.3619 7.24598Z" fill="#FFAA00"/>
<path fill-rule="evenodd" clip-rule="evenodd" d="M4.31029 26.1131C4.56894 27.6863 5.04505 29.1934 5.83704 30.5705C6.57409 31.9339 7.58124 33.1811 8.83332 34.2846L9.46737 34.8021C11.6327 36.2773 13.94 37.3306 16.4671 37.8505C18.0946 38.156 19.738 38.0602 21.3152 37.6886C22.9907 37.3306 24.5724 36.6512 26.0511 35.6457C24.6822 35.3379 23.4622 34.6061 22.5169 33.5071L22.1461 33.0853C20.1592 33.2951 18.1609 33.2312 16.1581 32.8254C13.6173 32.2417 11.4222 31.1884 9.37123 29.7292C7.41873 28.254 5.79355 26.373 4.56894 24.1706L4.25993 23.5367C4.21186 24.3781 4.21186 25.2672 4.31029 26.1131Z" fill="#FFAA00"/>
<path fill-rule="evenodd" clip-rule="evenodd" d="M23.0385 12.9027C21.2004 12.1093 19.1976 11.7513 17.1489 11.7513C15.1461 11.7992 13.2577 12.221 11.518 13.0623C9.77611 13.8421 8.26538 14.9935 6.99728 16.4686C6.09771 17.5721 5.36524 18.7714 4.896 20.0345C5.25308 21.6054 5.83448 23.0646 6.68598 24.5398C7.88999 26.5826 9.4671 28.3154 11.4196 29.6766C13.308 31.0377 15.4734 31.9315 17.7807 32.4467C19.1953 32.7089 20.6785 32.8229 22.1458 32.7545C21.5758 31.8175 21.2004 30.828 21.0379 29.6766C20.8411 28.5115 20.8937 27.3601 21.102 26.1107C21.363 24.5876 21.9329 23.1763 22.7272 21.8631C23.5787 20.5498 24.6843 19.3505 25.9844 18.3929C26.8336 17.7796 27.7286 17.3099 28.6236 16.9337L28.1498 16.4002C26.6711 14.8977 24.9933 13.6802 23.0385 12.9027Z" fill="#ED3921"/>
<path fill-rule="evenodd" clip-rule="evenodd" d="M37.0998 21.8653L36.6305 21.0719C35.9438 23.4385 34.6734 25.5315 33.0483 27.4262C32.6729 28.9971 32.0388 30.4084 31.2102 31.7217C30.361 33.0167 29.2531 34.1841 27.9873 35.1736C28.8823 35.2215 29.7773 35.0778 30.6746 34.7518C31.5169 34.444 32.2998 33.9743 33.0963 33.3405C34.1561 32.3533 35.1495 31.1859 35.9942 29.9866L36.1384 29.7769C36.5138 28.9971 36.8892 28.206 37.1455 27.4741C37.4088 26.6807 37.5713 25.9032 37.6216 25.1759C37.6697 24.3779 37.6697 23.6962 37.5232 23.0167C37.4111 22.5972 37.2485 22.2233 37.0998 21.8653Z" fill="#FF8800"/>
<path fill-rule="evenodd" clip-rule="evenodd" d="M2.46986 12.6406C1.78774 14.5261 1.41463 16.5166 1.3185 18.6734C1.27043 21.4413 1.78774 24.118 2.84983 26.6328C3.36714 27.8298 4.00576 28.9972 4.78173 30.1007C5.53481 31.1381 6.36342 32.1436 7.30419 33.0168C5.25784 30.7642 4.04697 28.1536 3.68073 25.2215C3.58001 24.2183 3.58001 23.2767 3.63037 22.2872C2.94825 20.388 2.57286 18.5093 2.57286 16.5644C2.57286 14.7336 2.89561 12.9507 3.46785 11.1153C3.95541 9.85446 4.57343 8.65291 5.25784 7.55396C4.04697 9.12714 3.15884 10.812 2.46986 12.6406Z" fill="#F66418"/>
<path fill-rule="evenodd" clip-rule="evenodd" d="M38.4047 13.7461C37.9309 12.2231 37.3129 10.7457 36.5163 9.38452C35.7357 8.07125 34.7721 6.8697 33.623 5.77303C32.5792 4.66723 31.3592 3.72788 29.9927 2.93445C31.144 3.7256 32.2015 4.66723 33.1492 5.72287C34.6302 7.39181 35.738 9.17476 36.4201 11.1697C37.1023 13.2103 37.4136 15.3193 37.2511 17.5081C37.203 18.1898 37.1023 18.8191 36.9924 19.5008C37.2511 19.9203 37.528 20.4401 37.7409 20.9737C38.2582 22.499 38.3566 24.1178 38.0957 25.7411C38.8923 23.4908 39.2974 21.1196 39.2493 18.6732C39.1509 16.9883 38.8923 15.3193 38.4047 13.7461Z" fill="#F66418"/>
<path fill-rule="evenodd" clip-rule="evenodd" d="M32.2017 18.7214C32.7235 19.8227 33.0509 21.0242 33.1951 22.2235C33.3622 23.4387 33.408 24.5901 33.3095 25.7415L33.0967 26.8929C34.6738 25.0621 35.7336 23.0192 36.3539 20.6503C35.9945 20.2946 35.6191 19.923 35.1934 19.6152C34.351 19.0292 33.3622 18.7214 32.2017 18.7214Z" fill="#F66418"/>
<path fill-rule="evenodd" clip-rule="evenodd" d="M29.0474 32.549C29.6815 31.6554 30.2011 30.6705 30.5765 29.6788C28.4592 31.188 26.1519 32.2412 23.6294 32.7565C23.9865 33.3401 24.4717 33.812 24.9936 34.1836C25.5178 34.5392 26.1015 34.7991 26.7836 35.0111C27.6305 34.2816 28.4111 33.4381 29.0474 32.549Z" fill="#ED3921"/>
<path fill-rule="evenodd" clip-rule="evenodd" d="M18.4653 38.1555L20.7314 38.2672C22.6839 38.2216 24.5174 37.8477 26.312 37.2641C27.9875 36.6964 29.6287 35.9031 31.0479 34.9137C30.1506 35.3354 29.2052 35.6432 28.2004 35.6911C27.8891 35.7549 27.5137 35.7549 27.1566 35.7549C24.5746 37.4282 21.6722 38.2216 18.4653 38.1555Z" fill="#ED3921"/>
<path fill-rule="evenodd" clip-rule="evenodd" d="M30.9976 22.9689C30.6749 21.6078 30.201 20.3469 29.5189 19.1454C28.3126 19.5033 27.2551 20.1349 26.2617 20.9762C25.2042 21.8677 24.3092 22.9712 23.6271 24.2206C23.0388 25.4815 22.684 26.683 22.5696 27.9438C22.4231 29.1431 22.5696 30.2489 22.8946 31.3C23.0388 31.6556 23.1555 31.9794 23.3684 32.2895C24.6869 32.1458 25.8886 31.7696 27.0949 31.2521C28.3607 30.7664 29.5212 30.103 30.6245 29.2594L30.7229 29.191C30.9358 28.4112 31.0983 27.6201 31.2128 26.838C31.3066 25.5316 31.2585 24.2799 30.9976 22.9689Z" fill="#FFEC00"/>
</g>
<defs>
<clipPath id="clip0_1592_2947">
<rect width="40" height="40" fill="white" transform="translate(0 0.000366211)"/>
</clipPath>
</defs>
</svg>
