<svg width="32" height="31" viewBox="0 0 32 31" fill="none" xmlns="http://www.w3.org/2000/svg">
<path d="M31.0467 16.9409H17.0885L26.3844 26.2368C26.7397 26.5921 27.3244 26.6209 27.6897 26.2768C29.9661 24.1321 31.532 21.2409 31.9914 17.9909C32.0702 17.4345 31.6085 16.9409 31.0467 16.9409ZM30.1155 13.1292C29.6308 6.10213 24.0155 0.486833 16.9885 0.00212707C16.452 -0.0349318 16.0002 0.417421 16.0002 0.955068V14.1174H29.1632C29.7008 14.1174 30.1526 13.6657 30.1155 13.1292ZM13.1767 16.9409V2.98271C13.1767 2.42095 12.6832 1.95919 12.1273 2.03801C5.11731 3.0286 -0.240926 9.15271 0.00848593 16.4921C0.264957 24.0298 6.75496 30.2109 14.2961 30.1162C17.2608 30.0792 20.0002 29.1239 22.2526 27.5262C22.7173 27.1968 22.7479 26.5127 22.345 26.1098L13.1767 16.9409Z" fill="#19C1CE"/>
</svg>
