<svg width="40" height="30" viewBox="0 0 40 30" fill="none" xmlns="http://www.w3.org/2000/svg">
<path d="M16.6456 3.9237C17.9356 2.56343 19.7316 1.71982 21.7179 1.71982C24.3584 1.71982 26.6621 3.20983 27.8889 5.42179C28.955 4.93973 30.135 4.67159 31.3766 4.67159C36.139 4.67159 40 8.61286 40 13.4744C40 18.3366 36.139 22.2779 31.3766 22.2779C30.7954 22.2779 30.2274 22.219 29.6781 22.1066C28.5977 24.0568 26.539 25.3744 24.1761 25.3744C23.1869 25.3744 22.2513 25.1431 21.4182 24.732C20.3231 27.339 17.7715 29.1669 14.7977 29.1669C11.7009 29.1669 9.06154 27.1838 8.04843 24.4027C7.6057 24.4979 7.14701 24.5475 6.67635 24.5475C2.98917 24.5475 0 21.4913 0 17.7207C0 15.194 1.34302 12.9878 3.33846 11.8074C2.92764 10.8508 2.69915 9.79496 2.69915 8.68494C2.69915 4.34868 6.17778 0.833536 10.4684 0.833536C12.9875 0.833536 15.2262 2.04561 16.6456 3.9237Z" fill="#00A1E0"/>
</svg>
