<svg width="40" height="40" viewBox="0 0 40 40" fill="none" xmlns="http://www.w3.org/2000/svg">
<g clip-path="url(#clip0_1592_2962)">
<path d="M33.155 7.78848C33.1275 7.58733 32.9523 7.47615 32.8075 7.46393C32.6629 7.45172 29.6036 7.2239 29.6036 7.2239C29.6036 7.2239 27.4789 5.10408 27.2459 4.8695C27.0124 4.63493 26.5568 4.70627 26.38 4.75864C26.3538 4.76636 25.9157 4.90228 25.1909 5.12753C24.481 3.07519 23.2286 1.18897 21.0249 1.18897C20.9642 1.18897 20.9015 1.19154 20.8388 1.19508C20.2122 0.362186 19.4358 0.000366211 18.7653 0.000366211C13.6322 0.000366211 11.1797 6.44917 10.4108 9.72643C8.4162 10.3476 6.9991 10.7891 6.81813 10.8463C5.70478 11.1972 5.66961 11.2325 5.52349 12.2868C5.41318 13.085 2.5 35.726 2.5 35.726L25.2001 40.0004L37.5 37.3262C37.5 37.3262 33.1822 7.98963 33.155 7.78848ZM23.9362 5.51763C23.3661 5.695 22.718 5.89648 22.0155 6.11498C22.0161 5.97906 22.0168 5.84507 22.0168 5.69886C22.0168 4.42317 21.8406 3.3962 21.5579 2.58194C22.6934 2.72526 23.4495 4.02344 23.9362 5.51763ZM20.1495 2.83483C20.4651 3.62981 20.6703 4.77053 20.6703 6.31003C20.6703 6.38876 20.6697 6.46074 20.6691 6.53368C19.4198 6.92249 18.0625 7.34472 16.702 7.76824C17.4659 4.80556 18.8977 3.37467 20.1495 2.83483ZM18.6243 1.38402C18.8459 1.38402 19.0691 1.45953 19.2827 1.60735C17.6376 2.38529 15.8742 4.34477 15.1295 8.25762C14.0411 8.59631 12.9773 8.92728 11.9938 9.23351C12.8661 6.24898 14.9374 1.38402 18.6243 1.38402Z" fill="#95BF46"/>
<path d="M32.8077 7.46392C32.6632 7.45171 29.6039 7.22388 29.6039 7.22388C29.6039 7.22388 27.4792 5.10406 27.2461 4.86949C27.1588 4.78208 27.0411 4.73742 26.918 4.71814L25.2017 40L37.5002 37.3262C37.5002 37.3262 33.1824 7.98962 33.1553 7.78846C33.1278 7.58731 32.9525 7.47613 32.8077 7.46392Z" fill="#5E8E3E"/>
<path d="M21.0248 14.2938L19.5082 18.8274C19.5082 18.8274 18.1794 18.1147 16.5506 18.1147C14.1628 18.1147 14.0426 19.6208 14.0426 20.0003C14.0426 22.071 19.4136 22.8643 19.4136 27.7145C19.4136 31.5303 17.0053 33.9875 13.758 33.9875C9.86129 33.9875 7.86865 31.5502 7.86865 31.5502L8.91197 28.086C8.91197 28.086 10.9602 29.8533 12.6888 29.8533C13.8181 29.8533 14.2776 28.9597 14.2776 28.3067C14.2776 25.6056 9.8712 25.4851 9.8712 21.0469C9.8712 17.3114 12.5391 13.6964 17.9246 13.6964C19.9997 13.6964 21.0248 14.2938 21.0248 14.2938Z" fill="white"/>
</g>
<defs>
<clipPath id="clip0_1592_2962">
<rect width="40" height="40" fill="white" transform="translate(0 0.000366211)"/>
</clipPath>
</defs>
</svg>
