<svg width="32" height="32" viewBox="0 0 32 32" fill="none" xmlns="http://www.w3.org/2000/svg">
<path d="M28.7759 9.60036C28.4693 8.44558 27.5656 7.53611 26.4183 7.22747C24.3387 6.66663 15.9998 6.66663 15.9998 6.66663C15.9998 6.66663 7.66098 6.66663 5.58134 7.22747C4.43403 7.53616 3.53042 8.44558 3.22373 9.60036C2.6665 11.6935 2.6665 16.0606 2.6665 16.0606C2.6665 16.0606 2.6665 20.4276 3.22373 22.5208C3.53042 23.6755 4.43403 24.5471 5.58134 24.8558C7.66098 25.4166 15.9998 25.4166 15.9998 25.4166C15.9998 25.4166 24.3387 25.4166 26.4183 24.8558C27.5656 24.5471 28.4693 23.6755 28.7759 22.5208C29.3332 20.4276 29.3332 16.0606 29.3332 16.0606C29.3332 16.0606 29.3332 11.6935 28.7759 9.60036ZM13.2725 20.0255V12.0956L20.2422 16.0607L13.2725 20.0255Z" fill="#212429"/>
</svg>
