<svg width="32" height="32" viewBox="0 0 32 32" fill="none" xmlns="http://www.w3.org/2000/svg">
<path d="M25.5331 11.5244C25.5483 11.7376 25.5483 11.9508 25.5483 12.164C25.5483 18.6665 20.5991 26.1589 11.5533 26.1589C8.7665 26.1589 6.17768 25.3518 4 23.9508C4.39595 23.9965 4.77663 24.0117 5.18782 24.0117C7.48728 24.0117 9.60407 23.2351 11.2944 21.9102C9.13199 21.8645 7.31979 20.4483 6.69542 18.499C7.00001 18.5447 7.30456 18.5751 7.62439 18.5751C8.066 18.5751 8.50766 18.5142 8.9188 18.4077C6.66499 17.9508 4.97458 15.9711 4.97458 13.5802V13.5193C5.62938 13.8848 6.39087 14.1132 7.19792 14.1437C5.87304 13.2604 5.00505 11.7528 5.00505 10.0472C5.00505 9.1335 5.24866 8.29593 5.67508 7.56496C8.09642 10.5497 11.736 12.4989 15.8172 12.7122C15.7411 12.3467 15.6954 11.966 15.6954 11.5853C15.6954 8.87461 17.8883 6.6665 20.6142 6.6665C22.0304 6.6665 23.3096 7.26041 24.2081 8.21981C25.3198 8.00662 26.3858 7.59543 27.33 7.03199C26.9644 8.17415 26.1878 9.13354 25.1675 9.74264C26.1574 9.63609 27.1168 9.36192 28 8.98125C27.3301 9.95583 26.4924 10.8238 25.5331 11.5244Z" fill="#212429"/>
</svg>
