<svg width="32" height="32" viewBox="0 0 32 32" fill="none" xmlns="http://www.w3.org/2000/svg">
<path d="M10.1087 26.6662H5.68588V12.4234H10.1087V26.6662ZM7.89492 10.4805C6.48064 10.4805 5.3335 9.30909 5.3335 7.8948C5.3335 7.21547 5.60336 6.56396 6.08372 6.0836C6.56408 5.60324 7.21559 5.33337 7.89492 5.33337C8.57426 5.33337 9.22577 5.60324 9.70613 6.0836C10.1865 6.56396 10.4564 7.21547 10.4564 7.8948C10.4564 9.30909 9.30873 10.4805 7.89492 10.4805ZM26.6621 26.6662H22.2487V19.7329C22.2487 18.0805 22.2154 15.9615 19.9492 15.9615C17.6497 15.9615 17.2973 17.7567 17.2973 19.6138V26.6662H12.8792V12.4234H17.1211V14.3662H17.183C17.7735 13.2472 19.2159 12.0662 21.3678 12.0662C25.844 12.0662 26.6668 15.0139 26.6668 18.8424V26.6662H26.6621Z" fill="#212429"/>
</svg>
