<svg width="32" height="32" viewBox="0 0 32 32" fill="none" xmlns="http://www.w3.org/2000/svg">
<path d="M15.9053 9.61343C12.4993 9.61343 9.75196 12.3607 9.75196 15.7667C9.75196 19.1727 12.4993 21.92 15.9053 21.92C19.3113 21.92 22.0586 19.1727 22.0586 15.7667C22.0586 12.3607 19.3113 9.61343 15.9053 9.61343ZM15.9053 19.7672C13.7042 19.7672 11.9048 17.9731 11.9048 15.7667C11.9048 13.5603 13.6989 11.7663 15.9053 11.7663C18.1117 11.7663 19.9057 13.5603 19.9057 15.7667C19.9057 17.9731 18.1063 19.7672 15.9053 19.7672ZM23.7455 9.36173C23.7455 10.1597 23.1028 10.797 22.3103 10.797C21.5123 10.797 20.875 10.1543 20.875 9.36173C20.875 8.56913 21.5177 7.92649 22.3103 7.92649C23.1028 7.92649 23.7455 8.56913 23.7455 9.36173ZM27.8209 10.8184C27.7299 8.89581 27.2907 7.19281 25.8823 5.78971C24.4792 4.38661 22.7762 3.94747 20.8536 3.85107C18.8721 3.73861 12.933 3.73861 10.9516 3.85107C9.03434 3.94211 7.33134 4.38125 5.92289 5.78435C4.51443 7.18745 4.08065 8.89045 3.98425 10.813C3.87179 12.7945 3.87179 18.7336 3.98425 20.7151C4.07529 22.6376 4.51443 24.3406 5.92289 25.7437C7.33134 27.1468 9.02899 27.586 10.9516 27.6824C12.933 27.7948 18.8721 27.7948 20.8536 27.6824C22.7762 27.5913 24.4792 27.1522 25.8823 25.7437C27.2854 24.3406 27.7245 22.6376 27.8209 20.7151C27.9334 18.7336 27.9334 12.7999 27.8209 10.8184ZM25.2611 22.8411C24.8433 23.8908 24.0347 24.6994 22.9797 25.1225C21.3998 25.7491 17.6511 25.6045 15.9053 25.6045C14.1594 25.6045 10.4053 25.7437 8.83084 25.1225C7.78119 24.7048 6.97253 23.8961 6.54946 22.8411C5.92289 21.2613 6.06748 17.5126 6.06748 15.7667C6.06748 14.0209 5.92824 10.2668 6.54946 8.69231C6.96718 7.64266 7.77584 6.834 8.83084 6.41093C10.4107 5.78435 14.1594 5.92895 15.9053 5.92895C17.6511 5.92895 21.4052 5.78971 22.9797 6.41093C24.0293 6.82864 24.838 7.6373 25.2611 8.69231C25.8876 10.2721 25.743 14.0209 25.743 15.7667C25.743 17.5126 25.8876 21.2667 25.2611 22.8411Z" fill="#212429"/>
</svg>
