<svg width="40" height="40" viewBox="0 0 40 40" fill="none" xmlns="http://www.w3.org/2000/svg">
<g clip-path="url(#clip0_1592_2938)">
<path d="M2.8428 20.0004C2.8428 26.7919 6.78936 32.661 12.5122 35.4422L4.32819 13.0177C3.37624 15.1516 2.8428 17.513 2.8428 20.0004ZM31.5816 19.1346C31.5816 17.0141 30.82 15.5456 30.1667 14.4026C29.2971 12.9893 28.4819 11.7924 28.4819 10.3791C28.4819 8.8019 29.678 7.33373 31.3629 7.33373C31.4389 7.33373 31.5111 7.3432 31.5852 7.34744C28.5328 4.55083 24.4661 2.84334 19.9995 2.84334C14.0057 2.84334 8.73244 5.91877 5.66471 10.577C6.06723 10.589 6.44658 10.5975 6.76879 10.5975C8.56334 10.5975 11.3412 10.3798 11.3412 10.3798C12.266 10.3253 12.3751 11.6837 11.4512 11.7931C11.4512 11.7931 10.5218 11.9025 9.48754 11.9567L15.7353 30.5415L19.4899 19.2802L16.8169 11.956C15.893 11.9018 15.0178 11.7924 15.0178 11.7924C14.0932 11.7383 14.2016 10.3246 15.1261 10.3791C15.1261 10.3791 17.9595 10.5969 19.6453 10.5969C21.4395 10.5969 24.2177 10.3791 24.2177 10.3791C25.1432 10.3246 25.2519 11.6831 24.3277 11.7924C24.3277 11.7924 23.3963 11.9018 22.364 11.956L28.5642 30.4001L30.2754 24.6812C31.0172 22.308 31.5816 20.6035 31.5816 19.1346ZM20.3005 21.5013L15.1529 36.4602C16.6899 36.912 18.3153 37.1592 19.9995 37.1592C21.9974 37.1592 23.9134 36.8138 25.6969 36.1866C25.6508 36.1131 25.609 36.0351 25.5748 35.9502L20.3005 21.5013ZM35.0538 11.7686C35.1276 12.3151 35.1694 12.9018 35.1694 13.5329C35.1694 15.274 34.8442 17.2313 33.8649 19.6785L28.6242 34.8314C33.7248 31.8568 37.1556 26.3305 37.1556 20.0008C37.1559 17.0177 36.3939 14.2126 35.0538 11.7686ZM19.9995 0.000366211C8.97206 0.000366211 0 8.97232 0 20.0004C0 31.0299 8.97206 40.0015 19.9995 40.0015C31.0266 40.0015 40 31.0299 40 20.0004C39.9997 8.97232 31.0266 0.000366211 19.9995 0.000366211ZM19.9995 39.0848C9.47775 39.0848 0.917022 30.5235 0.917022 20.0004C0.917022 9.47804 9.47742 0.917445 19.9995 0.917445C30.5209 0.917445 39.081 9.47804 39.081 20.0004C39.081 30.5235 30.5209 39.0848 19.9995 39.0848Z" fill="#464342"/>
</g>
<defs>
<clipPath id="clip0_1592_2938">
<rect width="40" height="40" fill="white" transform="translate(0 0.000366211)"/>
</clipPath>
</defs>
</svg>
