<svg width="31" height="31" viewBox="0 0 31 31" fill="none" xmlns="http://www.w3.org/2000/svg">
<path d="M21.0312 9.5C20.125 3.91875 17.9875 0 15.5 0C13.0125 0 10.875 3.91875 9.96875 9.5H21.0312ZM9.5 15.5C9.5 16.8875 9.575 18.2188 9.70625 19.5H21.2875C21.4188 18.2188 21.4937 16.8875 21.4937 15.5C21.4937 14.1125 21.4188 12.7812 21.2875 11.5H9.70625C9.575 12.7812 9.5 14.1125 9.5 15.5ZM29.7938 9.5C28.0063 5.25625 24.3875 1.975 19.9188 0.65C21.4438 2.7625 22.4938 5.94375 23.0438 9.5H29.7938ZM11.075 0.65C6.6125 1.975 2.9875 5.25625 1.20625 9.5H7.95625C8.5 5.94375 9.55 2.7625 11.075 0.65ZM30.4625 11.5H23.2938C23.425 12.8125 23.5 14.1562 23.5 15.5C23.5 16.8438 23.425 18.1875 23.2938 19.5H30.4562C30.8 18.2188 30.9937 16.8875 30.9937 15.5C30.9937 14.1125 30.8 12.7812 30.4625 11.5ZM7.5 15.5C7.5 14.1562 7.575 12.8125 7.70625 11.5H0.5375C0.2 12.7812 0 14.1125 0 15.5C0 16.8875 0.2 18.2188 0.5375 19.5H7.7C7.575 18.1875 7.5 16.8438 7.5 15.5ZM9.96875 21.5C10.875 27.0812 13.0125 31 15.5 31C17.9875 31 20.125 27.0812 21.0312 21.5H9.96875ZM19.925 30.35C24.3875 29.025 28.0125 25.7437 29.8 21.5H23.05C22.5 25.0562 21.45 28.2375 19.925 30.35ZM1.20625 21.5C2.99375 25.7437 6.6125 29.025 11.0813 30.35C9.55625 28.2375 8.50625 25.0562 7.95625 21.5H1.20625Z" fill="#19C1CE"/>
</svg>
