<svg width="40" height="40" viewBox="0 0 40 40" fill="none" xmlns="http://www.w3.org/2000/svg">
<g clip-path="url(#clip0_1592_2969)">
<path d="M20.0125 0.000366211C21.1424 0.00244704 22.2535 0.0981653 23.3337 0.279197V11.9526L31.5886 3.698C32.5003 4.34721 33.3533 5.06926 34.1418 5.8579C34.9308 6.64654 35.655 7.50178 36.3042 8.41317L28.0489 16.6678H39.7231C39.9043 17.7478 40 18.8548 40 19.9868V20.0138C40 21.1458 39.9043 22.2549 39.7231 23.3348H28.0469L36.3042 31.5874C35.655 32.4988 34.9308 33.354 34.1442 34.1426H34.1418C33.3533 34.9313 32.5003 35.6554 31.591 36.3025L23.3337 28.0479V39.7213C22.2555 39.9024 21.1443 39.998 20.0145 40.0004H19.9855C18.8553 39.998 17.7485 39.9024 16.6683 39.7213V28.0479L8.4134 36.3025C6.59032 35.0062 4.99647 33.4102 3.6978 31.5874L11.9531 23.3348H0.278884C0.0957423 22.2527 0 21.1395 0 20.0075V19.9494C0.00189773 19.6557 0.0210843 19.2968 0.0486425 18.9256L0.057152 18.8138C0.138749 17.7688 0.278884 16.6678 0.278884 16.6678H11.9531L3.6978 8.41317C4.34495 7.50178 5.06719 6.64862 5.85577 5.86208L5.85974 5.8579C6.64674 5.06926 7.50166 4.34721 8.4134 3.698L16.6683 11.9526V0.279197C17.7485 0.0981653 18.8576 0.00244704 19.9895 0.000366211H20.0125ZM20.0105 15.0011H19.9915C18.5057 15.0011 17.0826 15.2737 15.7673 15.7689C15.2743 17.0819 15.0013 18.5052 14.9994 19.9909V20.0096C15.0013 21.4953 15.2743 22.9186 15.7693 24.2316C17.0826 24.7269 18.5057 24.9995 19.9915 24.9995H20.0105C21.4963 24.9995 22.9193 24.7269 24.2327 24.2316C24.7277 22.9166 25.0006 21.4953 25.0006 20.0096V19.9909C25.0006 18.5052 24.7277 17.0819 24.2327 15.7689C22.9193 15.2737 21.4963 15.0011 20.0105 15.0011Z" fill="#FF4A00"/>
</g>
<defs>
<clipPath id="clip0_1592_2969">
<rect width="40" height="40" fill="white" transform="translate(0 0.000366211)"/>
</clipPath>
</defs>
</svg>
